<svg xmlns="http://www.w3.org/2000/svg" xmlns:xlink="http://www.w3.org/1999/xlink" width="512" zoomAndPan="magnify" viewBox="0 0 384 383.999986" height="512" preserveAspectRatio="xMidYMid meet" version="1.0"><defs><g/><clipPath id="d2e0e7b748"><rect x="0" width="206" y="0" height="369"/></clipPath></defs><g transform="matrix(1, 0, 0, 1, 89, 7)"><g clip-path="url(#d2e0e7b748)"><g fill="#1a1a1b" fill-opacity="1"><g transform="translate(0.589448, 303.978343)"><g><path d="M 41.609375 -126.40625 L 9.59375 -126.40625 L 9.59375 -152 L 41.609375 -152 L 41.609375 -187.203125 L 81.609375 -224.015625 L 142.40625 -224.015625 L 142.40625 -198.40625 L 94.40625 -198.40625 L 70.40625 -176.015625 L 70.40625 -152 L 118.40625 -152 L 118.40625 -126.40625 L 70.40625 -126.40625 L 70.40625 0 L 41.609375 0 Z M 41.609375 -126.40625 "/></g></g></g><g fill="#ff5722" fill-opacity="1"><g transform="translate(133.407294, 303.978343)"><g><path d="M 19.203125 -35.203125 L 52.796875 -35.203125 L 52.796875 0 L 19.203125 0 Z M 19.203125 -35.203125 "/></g></g></g></g></g></svg>