<svg xmlns="http://www.w3.org/2000/svg" xmlns:xlink="http://www.w3.org/1999/xlink" width="512" zoomAndPan="magnify" viewBox="0 0 384 383.999986" height="512" preserveAspectRatio="xMidYMid meet" version="1.0"><defs><g/></defs><g fill="#000000" fill-opacity="1"><g transform="translate(40.195317, 227.680777)"><g><path d="M 12.515625 -38 L 2.890625 -38 L 2.890625 -45.703125 L 12.515625 -45.703125 L 12.515625 -56.28125 L 24.53125 -67.359375 L 42.8125 -67.359375 L 42.8125 -59.65625 L 28.390625 -59.65625 L 21.171875 -52.921875 L 21.171875 -45.703125 L 35.59375 -45.703125 L 35.59375 -38 L 21.171875 -38 L 21.171875 0 L 12.515625 0 Z M 12.515625 -38 "/></g></g></g><g fill="#000000" fill-opacity="1"><g transform="translate(78.203214, 227.680777)"><g><path d="M 4.328125 -9.140625 L 4.328125 -19.71875 L 14.4375 -28.859375 L 41.375 -28.859375 L 41.375 -35.125 L 35.59375 -40.40625 L 10.578125 -40.40625 L 10.578125 -48.109375 L 39.453125 -48.109375 L 50.03125 -38.484375 L 50.03125 0 L 44.265625 0 L 43.296875 -5.765625 L 37.046875 0 L 14.4375 0 Z M 35.125 -7.703125 L 41.375 -13.46875 L 41.375 -21.171875 L 18.28125 -21.171875 L 12.984375 -16.359375 L 12.984375 -12.515625 L 18.28125 -7.703125 Z M 35.125 -7.703125 "/></g></g></g><g fill="#000000" fill-opacity="1"><g transform="translate(135.455677, 227.680777)"><g><path d="M 7.703125 -48.109375 L 16.359375 -48.109375 L 16.359375 0 L 7.703125 0 Z M 16.359375 -72.171875 L 26.453125 -72.171875 L 15.390625 -54.84375 L 9.625 -54.84375 Z M 16.359375 -72.171875 "/></g></g></g><g fill="#000000" fill-opacity="1"><g transform="translate(159.511339, 227.680777)"><g><path d="M 5.765625 -7.703125 L 36.078125 -7.703125 L 41.375 -12.515625 L 41.375 -15.875 L 36.078125 -20.6875 L 15.390625 -20.6875 L 5.296875 -29.828125 L 5.296875 -38.484375 L 15.875 -48.109375 L 47.140625 -48.109375 L 47.140625 -40.40625 L 19.71875 -40.40625 L 13.953125 -35.125 L 13.953125 -33.203125 L 19.25 -28.390625 L 39.9375 -28.390625 L 50.03125 -19.25 L 50.03125 -9.140625 L 39.9375 0 L 5.765625 0 Z M 5.765625 -7.703125 "/></g></g></g><g fill="#000000" fill-opacity="1"><g transform="translate(213.877123, 227.680777)"><g><path d="M 6.25 -11.0625 L 6.25 -37.046875 L 18.28125 -48.109375 L 48.109375 -48.109375 L 48.109375 -40.40625 L 22.125 -40.40625 L 14.90625 -33.671875 L 14.90625 -14.4375 L 22.125 -7.703125 L 48.109375 -7.703125 L 48.109375 0 L 18.28125 0 Z M 6.25 -11.0625 "/></g></g></g><g fill="#000000" fill-opacity="1"><g transform="translate(264.875093, 227.680777)"><g><path d="M 4.328125 -9.140625 L 4.328125 -19.71875 L 14.4375 -28.859375 L 41.375 -28.859375 L 41.375 -35.125 L 35.59375 -40.40625 L 10.578125 -40.40625 L 10.578125 -48.109375 L 39.453125 -48.109375 L 50.03125 -38.484375 L 50.03125 0 L 44.265625 0 L 43.296875 -5.765625 L 37.046875 0 L 14.4375 0 Z M 35.125 -7.703125 L 41.375 -13.46875 L 41.375 -21.171875 L 18.28125 -21.171875 L 12.984375 -16.359375 L 12.984375 -12.515625 L 18.28125 -7.703125 Z M 35.125 -7.703125 "/></g></g></g><g fill="#ff5722" fill-opacity="1"><g transform="translate(322.136704, 227.680777)"><g><path d="M 5.765625 -10.578125 L 15.875 -10.578125 L 15.875 0 L 5.765625 0 Z M 5.765625 -10.578125 "/></g></g></g></svg>